<mxfile host="Electron" modified="2024-02-11T13:26:41.969Z" agent="Mozilla/5.0 (Windows NT 10.0; Win64; x64) AppleWebKit/537.36 (KHTML, like Gecko) draw.io/23.0.2 Chrome/120.0.6099.109 Electron/28.1.0 Safari/537.36" etag="1d-oW-BwFINn7GFpSsh0" version="23.0.2" type="device">
  <diagram id="C5RBs43oDa-KdzZeNtuy" name="Page-1">
    <mxGraphModel dx="1418" dy="828" grid="1" gridSize="10" guides="1" tooltips="1" connect="1" arrows="1" fold="1" page="1" pageScale="1" pageWidth="827" pageHeight="1169" math="0" shadow="0">
      <root>
        <mxCell id="WIyWlLk6GJQsqaUBKTNV-0" />
        <mxCell id="WIyWlLk6GJQsqaUBKTNV-1" parent="WIyWlLk6GJQsqaUBKTNV-0" />
        <mxCell id="OdLC6a7R4vBJNEzhBuDr-3" value="" style="edgeStyle=orthogonalEdgeStyle;rounded=0;orthogonalLoop=1;jettySize=auto;html=1;" edge="1" parent="WIyWlLk6GJQsqaUBKTNV-1" source="OdLC6a7R4vBJNEzhBuDr-1" target="OdLC6a7R4vBJNEzhBuDr-2">
          <mxGeometry relative="1" as="geometry" />
        </mxCell>
        <mxCell id="OdLC6a7R4vBJNEzhBuDr-1" value="Начало&lt;br&gt;" style="ellipse;whiteSpace=wrap;html=1;aspect=fixed;" vertex="1" parent="WIyWlLk6GJQsqaUBKTNV-1">
          <mxGeometry x="350" y="40" width="80" height="80" as="geometry" />
        </mxCell>
        <mxCell id="OdLC6a7R4vBJNEzhBuDr-5" value="" style="edgeStyle=orthogonalEdgeStyle;rounded=0;orthogonalLoop=1;jettySize=auto;html=1;" edge="1" parent="WIyWlLk6GJQsqaUBKTNV-1" source="OdLC6a7R4vBJNEzhBuDr-2" target="OdLC6a7R4vBJNEzhBuDr-4">
          <mxGeometry relative="1" as="geometry" />
        </mxCell>
        <mxCell id="OdLC6a7R4vBJNEzhBuDr-2" value="вводим строку и разбиваем на массив строк&lt;br&gt;&lt;div style=&quot;color: rgb(212, 212, 212); background-color: rgb(30, 30, 30); font-family: Consolas, &amp;quot;Courier New&amp;quot;, monospace; font-size: 14px; line-height: 19px;&quot;&gt;inputArray = &lt;span style=&quot;color: #9cdcfe;&quot;&gt;input&lt;/span&gt;.&lt;span style=&quot;color: #dcdcaa;&quot;&gt;Split&lt;/span&gt;(&lt;span style=&quot;color: #ce9178;&quot;&gt;&#39;&lt;/span&gt;&lt;span style=&quot;color: #ce9178;&quot;&gt; &lt;/span&gt;&lt;span style=&quot;color: #ce9178;&quot;&gt;&#39;&lt;/span&gt;)&lt;/div&gt;" style="rounded=0;whiteSpace=wrap;html=1;" vertex="1" parent="WIyWlLk6GJQsqaUBKTNV-1">
          <mxGeometry x="240" y="190" width="300" height="170" as="geometry" />
        </mxCell>
        <mxCell id="OdLC6a7R4vBJNEzhBuDr-9" style="edgeStyle=orthogonalEdgeStyle;rounded=0;orthogonalLoop=1;jettySize=auto;html=1;entryX=0.5;entryY=0;entryDx=0;entryDy=0;" edge="1" parent="WIyWlLk6GJQsqaUBKTNV-1" source="OdLC6a7R4vBJNEzhBuDr-4" target="OdLC6a7R4vBJNEzhBuDr-7">
          <mxGeometry relative="1" as="geometry" />
        </mxCell>
        <mxCell id="OdLC6a7R4vBJNEzhBuDr-14" value="Yes" style="edgeLabel;html=1;align=center;verticalAlign=middle;resizable=0;points=[];" vertex="1" connectable="0" parent="OdLC6a7R4vBJNEzhBuDr-9">
          <mxGeometry x="-0.5254" y="-1" relative="1" as="geometry">
            <mxPoint as="offset" />
          </mxGeometry>
        </mxCell>
        <mxCell id="OdLC6a7R4vBJNEzhBuDr-10" style="edgeStyle=orthogonalEdgeStyle;rounded=0;orthogonalLoop=1;jettySize=auto;html=1;entryX=0.5;entryY=0;entryDx=0;entryDy=0;" edge="1" parent="WIyWlLk6GJQsqaUBKTNV-1" source="OdLC6a7R4vBJNEzhBuDr-4" target="OdLC6a7R4vBJNEzhBuDr-6">
          <mxGeometry relative="1" as="geometry" />
        </mxCell>
        <mxCell id="OdLC6a7R4vBJNEzhBuDr-15" value="No" style="edgeLabel;html=1;align=center;verticalAlign=middle;resizable=0;points=[];" vertex="1" connectable="0" parent="OdLC6a7R4vBJNEzhBuDr-10">
          <mxGeometry x="-0.5821" y="2" relative="1" as="geometry">
            <mxPoint as="offset" />
          </mxGeometry>
        </mxCell>
        <mxCell id="OdLC6a7R4vBJNEzhBuDr-4" value="Проверяем есть ли в массиве строки длинной&amp;nbsp;&lt;br&gt;3 символа или нет&lt;br&gt;&lt;div style=&quot;color: rgb(212, 212, 212); background-color: rgb(30, 30, 30); font-family: Consolas, &amp;quot;Courier New&amp;quot;, monospace; font-size: 14px; line-height: 19px;&quot;&gt;inputArray[&lt;span style=&quot;color: #9cdcfe;&quot;&gt;i&lt;/span&gt;].Length &amp;lt;= &lt;span style=&quot;color: #b5cea8;&quot;&gt;3&lt;/span&gt;&lt;/div&gt;" style="rhombus;whiteSpace=wrap;html=1;" vertex="1" parent="WIyWlLk6GJQsqaUBKTNV-1">
          <mxGeometry x="225" y="400" width="330" height="300" as="geometry" />
        </mxCell>
        <mxCell id="OdLC6a7R4vBJNEzhBuDr-6" value="Выдаем сообщение об отстутствии таких строк" style="rounded=0;whiteSpace=wrap;html=1;" vertex="1" parent="WIyWlLk6GJQsqaUBKTNV-1">
          <mxGeometry x="640" y="740" width="120" height="60" as="geometry" />
        </mxCell>
        <mxCell id="OdLC6a7R4vBJNEzhBuDr-7" value="Вывод массив строк&amp;nbsp;&lt;br&gt;с 3мя символами&amp;nbsp;" style="rounded=0;whiteSpace=wrap;html=1;" vertex="1" parent="WIyWlLk6GJQsqaUBKTNV-1">
          <mxGeometry x="60" y="740" width="120" height="60" as="geometry" />
        </mxCell>
        <mxCell id="OdLC6a7R4vBJNEzhBuDr-8" value="Выход из программы" style="ellipse;whiteSpace=wrap;html=1;aspect=fixed;" vertex="1" parent="WIyWlLk6GJQsqaUBKTNV-1">
          <mxGeometry x="340" y="830" width="170" height="170" as="geometry" />
        </mxCell>
        <mxCell id="OdLC6a7R4vBJNEzhBuDr-11" style="edgeStyle=orthogonalEdgeStyle;rounded=0;orthogonalLoop=1;jettySize=auto;html=1;entryX=0.994;entryY=0.624;entryDx=0;entryDy=0;entryPerimeter=0;" edge="1" parent="WIyWlLk6GJQsqaUBKTNV-1" source="OdLC6a7R4vBJNEzhBuDr-6" target="OdLC6a7R4vBJNEzhBuDr-8">
          <mxGeometry relative="1" as="geometry">
            <Array as="points">
              <mxPoint x="575" y="770" />
              <mxPoint x="575" y="920" />
              <mxPoint x="509" y="920" />
            </Array>
          </mxGeometry>
        </mxCell>
        <mxCell id="OdLC6a7R4vBJNEzhBuDr-13" style="edgeStyle=orthogonalEdgeStyle;rounded=0;orthogonalLoop=1;jettySize=auto;html=1;entryX=0;entryY=0.647;entryDx=0;entryDy=0;entryPerimeter=0;" edge="1" parent="WIyWlLk6GJQsqaUBKTNV-1" source="OdLC6a7R4vBJNEzhBuDr-7" target="OdLC6a7R4vBJNEzhBuDr-8">
          <mxGeometry relative="1" as="geometry">
            <Array as="points">
              <mxPoint x="260" y="770" />
              <mxPoint x="260" y="920" />
              <mxPoint x="340" y="920" />
            </Array>
          </mxGeometry>
        </mxCell>
      </root>
    </mxGraphModel>
  </diagram>
</mxfile>
